<svg width="18" height="18" viewBox="0 0 18 18" fill="none" xmlns="http://www.w3.org/2000/svg">
<path d="M15.9834 2.01657C15.842 1.87519 15.6654 1.77408 15.4718 1.72366C15.2783 1.67323 15.0748 1.67532 14.8823 1.72969H14.8718L1.37602 5.82469C1.15633 5.88787 0.961105 6.01647 0.816332 6.19338C0.671559 6.37028 0.584111 6.58709 0.565633 6.81493C0.547155 7.04278 0.598524 7.27084 0.712899 7.46876C0.827274 7.66668 0.999228 7.82506 1.20586 7.92282L7.22602 10.774L10.0772 16.7941C10.1672 16.9869 10.3105 17.1499 10.4902 17.2639C10.6698 17.3779 10.8783 17.4382 11.0911 17.4375C11.1234 17.4375 11.1558 17.4361 11.1881 17.4333C11.4152 17.4149 11.6312 17.3275 11.8071 17.1829C11.9831 17.0382 12.1106 16.8432 12.1725 16.624L16.2647 3.12821C16.2647 3.12469 16.2647 3.12118 16.2647 3.11766C16.3198 2.92568 16.3228 2.7225 16.2733 2.52899C16.2239 2.33548 16.1238 2.15861 15.9834 2.01657ZM11.0974 16.302L11.0939 16.3118L8.32641 10.4695L11.648 7.14727C11.749 7.04092 11.8045 6.89931 11.8026 6.75263C11.8007 6.60596 11.7416 6.46581 11.6379 6.36209C11.5342 6.25836 11.3941 6.19926 11.2474 6.19738C11.1007 6.1955 10.9591 6.251 10.8527 6.35203L7.53047 9.6736L1.68751 6.9061H1.69735L15.1875 2.8125L11.0974 16.302Z" fill="white"/>
</svg>
