<svg width="31" height="23" viewBox="0 0 31 23" fill="none" xmlns="http://www.w3.org/2000/svg">
<path d="M15.088 0C6.7558 0 0 11.1771 0 11.1771C0 11.1771 6.7558 22.649 15.088 22.649C23.4202 22.649 30.176 11.1771 30.176 11.1771C30.176 11.1771 23.4202 0 15.088 0ZM15.088 18.8741C10.9216 18.8741 7.54399 15.494 7.54399 11.3245C7.54399 7.15496 10.9216 3.77483 15.088 3.77483C19.2544 3.77483 22.632 7.15496 22.632 11.3245C22.632 15.494 19.2544 18.8741 15.088 18.8741Z" fill="#1B1A25"/>
<path d="M19.7597 11.5372C19.7597 13.9991 17.6703 15.9913 15.0933 15.9913C12.5163 15.9913 10.4269 13.9991 10.4269 11.5372C10.3901 9.55006 12.3281 7.61774 12.3281 7.61774C12.3281 7.61774 13.2751 8.70443 13.5336 8.72154C14.5267 8.78726 15.0933 5.10239 15.0933 5.10239C15.0933 5.10239 19.7597 9.07536 19.7597 11.5372Z" fill="#1B1A25"/>
</svg>
