<svg width="24" height="24" viewBox="0 0 24 24" fill="none" xmlns="http://www.w3.org/2000/svg">
<path d="M15.5306 8.46939C15.6004 8.53904 15.6557 8.62176 15.6934 8.71281C15.7312 8.80386 15.7506 8.90145 15.7506 9.00001C15.7506 9.09857 15.7312 9.19617 15.6934 9.28722C15.6557 9.37827 15.6004 9.46098 15.5306 9.53064L9.53062 15.5306C9.46094 15.6003 9.37821 15.6556 9.28717 15.6933C9.19612 15.731 9.09854 15.7504 8.99999 15.7504C8.90145 15.7504 8.80387 15.731 8.71282 15.6933C8.62178 15.6556 8.53905 15.6003 8.46937 15.5306C8.39968 15.461 8.34441 15.3782 8.3067 15.2872C8.26899 15.1961 8.24958 15.0986 8.24958 15C8.24958 14.9015 8.26899 14.8039 8.3067 14.7128C8.34441 14.6218 8.39968 14.5391 8.46937 14.4694L14.4694 8.46939C14.539 8.39966 14.6217 8.34434 14.7128 8.30659C14.8038 8.26885 14.9014 8.24942 15 8.24942C15.0986 8.24942 15.1961 8.26885 15.2872 8.30659C15.3782 8.34434 15.461 8.39966 15.5306 8.46939ZM20.2125 3.78751C19.725 3.29995 19.1462 2.91319 18.5092 2.64932C17.8722 2.38545 17.1895 2.24963 16.5 2.24963C15.8105 2.24963 15.1278 2.38545 14.4908 2.64932C13.8538 2.91319 13.275 3.29995 12.7875 3.78751L9.96937 6.6047C9.82864 6.74543 9.74958 6.9363 9.74958 7.13532C9.74958 7.33435 9.82864 7.52522 9.96937 7.66595C10.1101 7.80668 10.301 7.88574 10.5 7.88574C10.699 7.88574 10.8899 7.80668 11.0306 7.66595L13.8487 4.85345C14.5546 4.16312 15.5042 3.779 16.4914 3.78443C17.4787 3.78987 18.424 4.18443 19.1222 4.88249C19.8204 5.58055 20.2151 6.52579 20.2207 7.51306C20.2263 8.50034 19.8424 9.45 19.1522 10.156L16.3331 12.9741C16.1924 13.1147 16.1133 13.3054 16.1132 13.5044C16.1131 13.7033 16.192 13.8941 16.3326 14.0349C16.4733 14.1756 16.664 14.2547 16.8629 14.2548C17.0619 14.2549 17.2527 14.1759 17.3934 14.0353L20.2125 11.2125C20.7001 10.725 21.0868 10.1462 21.3507 9.50922C21.6146 8.87223 21.7504 8.1895 21.7504 7.50001C21.7504 6.81053 21.6146 6.1278 21.3507 5.4908C21.0868 4.85381 20.7001 4.27503 20.2125 3.78751ZM12.9694 16.3331L10.1512 19.1513C9.80444 19.5059 9.39074 19.7881 8.9341 19.9817C8.47746 20.1753 7.98695 20.2764 7.49097 20.2792C6.99499 20.2819 6.50339 20.1862 6.04465 19.9976C5.5859 19.8091 5.16912 19.5314 4.81843 19.1806C4.46775 18.8299 4.19012 18.4131 4.00164 17.9543C3.81316 17.4955 3.71756 17.0039 3.72038 16.5079C3.7232 16.0119 3.82438 15.5214 4.01806 15.0648C4.21175 14.6082 4.49409 14.1946 4.84874 13.8478L7.66593 11.0306C7.80666 10.8899 7.88572 10.699 7.88572 10.5C7.88572 10.301 7.80666 10.1101 7.66593 9.96939C7.5252 9.82866 7.33433 9.7496 7.13531 9.7496C6.93628 9.7496 6.74541 9.82866 6.60468 9.96939L3.78749 12.7875C2.80288 13.7721 2.24973 15.1076 2.24973 16.5C2.24973 17.8925 2.80288 19.2279 3.78749 20.2125C4.77211 21.1971 6.10754 21.7503 7.49999 21.7503C8.89245 21.7503 10.2279 21.1971 11.2125 20.2125L14.0306 17.3934C14.1712 17.2527 14.2502 17.0619 14.2501 16.863C14.25 16.664 14.1709 16.4733 14.0301 16.3327C13.8894 16.1921 13.6986 16.1131 13.4997 16.1132C13.3007 16.1133 13.11 16.1924 12.9694 16.3331Z" fill="#C900EC"/>
</svg>
