<svg width="24" height="24" viewBox="0 0 24 24" fill="none" xmlns="http://www.w3.org/2000/svg">
<path d="M16.5 15C15.9997 14.9999 15.5044 15.1001 15.0436 15.2948C14.5827 15.4895 14.1656 15.7746 13.8169 16.1334L9.49501 13.3556C9.83497 12.4839 9.83497 11.5162 9.49501 10.6444L13.8169 7.86658C14.4661 8.53156 15.339 8.93181 16.2665 8.98973C17.1941 9.04764 18.11 8.75909 18.8369 8.18003C19.5638 7.60096 20.0497 6.77263 20.2005 5.85563C20.3514 4.93863 20.1563 3.99829 19.6532 3.21692C19.1501 2.43556 18.3748 1.86883 17.4776 1.62662C16.5804 1.38441 15.6252 1.48397 14.7973 1.906C13.9693 2.32803 13.3275 3.04246 12.9964 3.91078C12.6652 4.7791 12.6683 5.73945 13.005 6.60564L8.68314 9.38345C8.1627 8.84915 7.49475 8.48218 6.76467 8.32946C6.0346 8.17674 5.27556 8.24521 4.5846 8.52611C3.89363 8.80701 3.30213 9.28758 2.88571 9.90639C2.46929 10.5252 2.24686 11.2541 2.24686 12C2.24686 12.7459 2.46929 13.4748 2.88571 14.0936C3.30213 14.7124 3.89363 15.193 4.5846 15.4739C5.27556 15.7548 6.0346 15.8233 6.76467 15.6706C7.49475 15.5178 8.1627 15.1509 8.68314 14.6166L13.005 17.3944C12.7155 18.1411 12.6726 18.961 12.8828 19.7338C13.0929 20.5067 13.5449 21.192 14.1727 21.6893C14.8004 22.1867 15.5709 22.47 16.3714 22.4978C17.1718 22.5255 17.9601 22.2963 18.6208 21.8437C19.2815 21.391 19.78 20.7387 20.0432 19.9823C20.3063 19.2258 20.3204 18.405 20.0834 17.64C19.8463 16.875 19.3705 16.206 18.7257 15.7309C18.0809 15.2558 17.3009 14.9997 16.5 15ZM16.5 3.00001C16.945 3.00001 17.38 3.13197 17.75 3.37921C18.1201 3.62644 18.4084 3.97784 18.5787 4.38897C18.749 4.80011 18.7936 5.25251 18.7068 5.68897C18.62 6.12542 18.4057 6.52633 18.091 6.841C17.7763 7.15567 17.3754 7.36996 16.939 7.45678C16.5025 7.5436 16.0501 7.49904 15.639 7.32874C15.2278 7.15844 14.8764 6.87006 14.6292 6.50005C14.382 6.13003 14.25 5.69502 14.25 5.25001C14.25 4.65328 14.4871 4.08098 14.909 3.65902C15.331 3.23707 15.9033 3.00001 16.5 3.00001ZM6.00001 14.25C5.555 14.25 5.11999 14.1181 4.74998 13.8708C4.37997 13.6236 4.09158 13.2722 3.92128 12.8611C3.75099 12.4499 3.70643 11.9975 3.79325 11.5611C3.88006 11.1246 4.09435 10.7237 4.40902 10.409C4.72369 10.0944 5.1246 9.88006 5.56106 9.79325C5.99752 9.70643 6.44992 9.75099 6.86105 9.92128C7.27218 10.0916 7.62358 10.38 7.87082 10.75C8.11805 11.12 8.25001 11.555 8.25001 12C8.25001 12.5967 8.01296 13.169 7.591 13.591C7.16905 14.013 6.59675 14.25 6.00001 14.25ZM16.5 21C16.055 21 15.62 20.8681 15.25 20.6208C14.88 20.3736 14.5916 20.0222 14.4213 19.611C14.251 19.1999 14.2064 18.7475 14.2932 18.3111C14.3801 17.8746 14.5944 17.4737 14.909 17.159C15.2237 16.8444 15.6246 16.6301 16.0611 16.5432C16.4975 16.4564 16.9499 16.501 17.361 16.6713C17.7722 16.8416 18.1236 17.13 18.3708 17.5C18.6181 17.87 18.75 18.305 18.75 18.75C18.75 19.3467 18.513 19.919 18.091 20.341C17.669 20.763 17.0967 21 16.5 21Z" fill="#FF3DBA"/>
</svg>
