<svg width="16" height="16" viewBox="0 0 16 16" fill="none" xmlns="http://www.w3.org/2000/svg">
<path d="M8.00001 1.5C6.87781 1.49976 5.77465 1.79006 4.79792 2.34264C3.82119 2.89523 3.00417 3.69128 2.42637 4.65331C1.84858 5.61534 1.52969 6.71058 1.50076 7.83241C1.47182 8.95425 1.73383 10.0645 2.26126 11.055L1.55189 13.1831C1.49313 13.3593 1.4846 13.5484 1.52726 13.7292C1.56992 13.9099 1.66209 14.0753 1.79342 14.2066C1.92476 14.3379 2.09007 14.4301 2.27084 14.4728C2.45161 14.5154 2.64069 14.5069 2.81689 14.4481L4.94502 13.7388C5.81675 14.2024 6.78265 14.4614 7.76941 14.496C8.75617 14.5306 9.73785 14.34 10.6399 13.9386C11.542 13.5372 12.3408 12.9355 12.9756 12.1793C13.6105 11.4231 14.0647 10.5322 14.3038 9.57421C14.543 8.61624 14.5607 7.61638 14.3557 6.65052C14.1507 5.68467 13.7284 4.77821 13.1208 3.99995C12.5132 3.22169 11.7362 2.59208 10.849 2.15891C9.96168 1.72574 8.98738 1.50041 8.00001 1.5ZM8.00001 13.5C7.03313 13.5007 6.0832 13.246 5.24627 12.7619C5.18499 12.7263 5.11686 12.7042 5.04639 12.697C4.97592 12.6898 4.90473 12.6976 4.83752 12.72L2.50002 13.5L3.27939 11.1625C3.30186 11.0953 3.3098 11.0242 3.30269 10.9537C3.29557 10.8832 3.27357 10.8151 3.23814 10.7537C2.63187 9.70557 2.38846 8.48661 2.54566 7.28598C2.70286 6.08534 3.25189 4.97014 4.10757 4.11337C4.96325 3.2566 6.07776 2.70617 7.2782 2.54745C8.47864 2.38873 9.6979 2.63061 10.7468 3.23555C11.7958 3.8405 12.6158 4.77469 13.0796 5.89322C13.5434 7.01175 13.6252 8.25208 13.3122 9.42181C12.9991 10.5915 12.3088 11.6253 11.3484 12.3626C10.3879 13.1 9.2109 13.4998 8.00001 13.5Z" fill="#2FA700"/>
</svg>
