<svg width="16" height="16" viewBox="0 0 16 16" fill="none" xmlns="http://www.w3.org/2000/svg">
<path d="M14.2075 1.79248C14.0818 1.66682 13.9248 1.57694 13.7527 1.53212C13.5807 1.4873 13.3998 1.48915 13.2288 1.53748H13.2194L1.22313 5.17748C1.02785 5.23364 0.854315 5.34796 0.725628 5.5052C0.596941 5.66245 0.51921 5.85517 0.502785 6.0577C0.48636 6.26022 0.532021 6.46295 0.633688 6.63888C0.735355 6.81481 0.888203 6.95559 1.07188 7.04248L6.42313 9.57686L8.95751 14.9281C9.03752 15.0995 9.16489 15.2444 9.32458 15.3457C9.48428 15.447 9.66963 15.5006 9.85876 15.5C9.88751 15.5 9.91625 15.4987 9.945 15.4962C10.1468 15.4799 10.3388 15.4022 10.4952 15.2736C10.6516 15.145 10.7649 14.9717 10.82 14.7769L14.4575 2.78061C14.4575 2.77748 14.4575 2.77436 14.4575 2.77123C14.5065 2.60059 14.5091 2.41998 14.4652 2.24797C14.4212 2.07596 14.3323 1.91875 14.2075 1.79248ZM9.86438 14.4906L9.86125 14.4994L7.40125 9.30623L10.3538 6.35311C10.4436 6.25858 10.4929 6.1327 10.4912 6.00232C10.4896 5.87194 10.437 5.74737 10.3448 5.65517C10.2526 5.56297 10.128 5.51043 9.99767 5.50876C9.86729 5.50709 9.74141 5.55642 9.64688 5.64623L6.69375 8.59873L1.5 6.13873H1.50875L13.5 2.49998L9.86438 14.4906Z" fill="#E96C00"/>
</svg>
