<svg width="16" height="16" viewBox="0 0 16 16" fill="none" xmlns="http://www.w3.org/2000/svg">
<g clip-path="url(#clip0_2007_127)">
<path d="M4.60324 0H11.3968C12.6609 0 13.811 0.515625 14.6455 1.34375C15.4813 2.17318 16 3.31771 16 4.57552V11.4258C16 12.681 15.4813 13.8242 14.6481 14.6536L14.6455 14.6563C13.8097 15.4857 12.6596 16 11.3981 16H4.60324C3.33781 16 2.18634 15.4844 1.35189 14.6563L1.32045 14.6211C0.505649 13.7956 0 12.6654 0 11.4245V4.57552C0 3.31641 0.517439 2.17318 1.35189 1.34375C2.18634 0.514323 3.3365 0 4.60324 0ZM11.9876 4.03906L11.9967 4.05339H14.8263C14.7123 3.3138 14.3573 2.64974 13.8464 2.14063C13.2176 1.51563 12.3504 1.1276 11.3968 1.1276H10.2348L11.9876 4.03906ZM10.6789 4.05339L8.91698 1.1276H5.05256L6.83543 4.05339H10.6789ZM5.51629 4.05339L3.79237 1.22266C3.16227 1.3737 2.59767 1.69792 2.15359 2.14063C1.64271 2.64844 1.28901 3.3138 1.17374 4.05339H5.51629ZM14.8656 5.18099H1.13444V11.4258C1.13444 12.3594 1.51302 13.2096 2.12477 13.832L2.15359 13.8594C2.78238 14.4844 3.65089 14.8737 4.60324 14.8737H11.3968C12.3504 14.8737 13.2176 14.4857 13.8451 13.862L13.8477 13.8594C14.4752 13.2357 14.8656 12.3737 14.8656 11.4258V5.18099ZM6.67431 7.15495L10.189 9.42708C10.2453 9.46354 10.2964 9.51042 10.337 9.56771C10.4968 9.79818 10.4379 10.1146 10.206 10.2734L6.70575 12.3268C6.61798 12.3984 6.50532 12.4414 6.38087 12.4414C6.09792 12.4414 5.86867 12.2135 5.86867 11.9323V7.57162H5.87129C5.87129 7.47135 5.90142 7.36979 5.96299 7.28125C6.12543 7.05078 6.44375 6.99479 6.67431 7.15495Z" fill="white"/>
</g>
<defs>
<clipPath id="clip0_2007_127">
<rect width="16" height="16" fill="white"/>
</clipPath>
</defs>
</svg>
